<svg xmlns="http://www.w3.org/2000/svg" height="48" width="48"><path d="M14 27.8q.9 0 1.475-.6.575-.6.575-1.5 0-.85-.575-1.425Q14.9 23.7 14 23.7q-.85 0-1.425.575Q12 24.85 12 25.75q0 .8.575 1.425T14 27.8Zm0-8.05q.9 0 1.475-.6.575-.6.575-1.45 0-.8-.575-1.4-.575-.6-1.475-.6-.85 0-1.425.6-.575.6-.575 1.45 0 .8.575 1.4.575.6 1.425.6Zm4.45 7.7H35.9V24H18.45Zm0-7.95H35.9v-3.45H18.45ZM16 43.1v-4.5H7.5q-1.85 0-3.2-1.375T2.95 34V9.45q0-1.9 1.35-3.25t3.2-1.35h33q1.9 0 3.25 1.35t1.35 3.25V34q0 1.85-1.35 3.225T40.5 38.6h-8.45v4.5ZM7.5 34h33V9.45h-33V34Zm0 0V9.45 34Z"/></svg>