<svg xmlns="http://www.w3.org/2000/svg" height="48" width="48"><path d="M14.45 44.4q-1.5 0-2.525-1.05t-1.025-2.5q0-1.5 1.05-2.525t2.5-1.025q1.5 0 2.525 1.05T18 40.85q0 1.5-1.05 2.525t-2.5 1.025Zm19.85 0q-1.5 0-2.5-1.05t-1-2.5q0-1.5 1.025-2.525T34.3 37.3q1.55 0 2.55 1.05 1 1.05 1 2.5 0 1.5-1.025 2.525T34.3 44.4ZM12.7 11.5l4.7 9.75h14.2l5.3-9.75Zm-2-3.95h27.7q1.75 0 2.7 1.6.95 1.6.1 3.25l-5.8 10.5q-.6 1-1.55 1.675-.95.675-2.2.675H16.9l-2.5 4.8h24V34H13.95q-2.45 0-3.5-1.65-1.05-1.65.05-3.65l3.1-5.6L6.3 7.55H2.2V3.6h6.65Zm6.7 13.7h14.2Z"/></svg>